<?xml version="1.0" encoding="UTF-8" standalone="no"?>
<!-- Created with Inkscape (http://www.inkscape.org/) -->

<svg
   xmlns:dc="http://purl.org/dc/elements/1.1/"
   xmlns:cc="http://creativecommons.org/ns#"
   xmlns:rdf="http://www.w3.org/1999/02/22-rdf-syntax-ns#"
   xmlns:svg="http://www.w3.org/2000/svg"
   xmlns="http://www.w3.org/2000/svg"
   xmlns:sodipodi="http://sodipodi.sourceforge.net/DTD/sodipodi-0.dtd"
   xmlns:inkscape="http://www.inkscape.org/namespaces/inkscape"
   width="12.94764mm"
   height="18.099798mm"
   viewBox="0 0 45.877462 64.133147"
   id="svg2"
   version="1.1"
   inkscape:version="0.91 r13725"
   sodipodi:docname="favicon.svg"
   inkscape:export-filename="/var/www/kopalova/img/favicon.png"
   inkscape:export-xdpi="103.9505"
   inkscape:export-ydpi="103.9505">
  <defs
     id="defs4" />
  <sodipodi:namedview
     id="base"
     pagecolor="#ffffff"
     bordercolor="#666666"
     borderopacity="0.34117647"
     inkscape:pageopacity="0"
     inkscape:pageshadow="2"
     inkscape:zoom="5.6568544"
     inkscape:cx="-7.1336461"
     inkscape:cy="39.330591"
     inkscape:document-units="px"
     inkscape:current-layer="layer1"
     showgrid="false"
     inkscape:window-width="1535"
     inkscape:window-height="876"
     inkscape:window-x="65"
     inkscape:window-y="24"
     inkscape:window-maximized="1"
     fit-margin-top="0"
     fit-margin-left="0"
     fit-margin-right="0"
     fit-margin-bottom="0" />
  <metadata
     id="metadata7">
    <rdf:RDF>
      <cc:Work
         rdf:about="">
        <dc:format>image/svg+xml</dc:format>
        <dc:type
           rdf:resource="http://purl.org/dc/dcmitype/StillImage" />
        <dc:title></dc:title>
      </cc:Work>
    </rdf:RDF>
  </metadata>
  <g
     inkscape:label="Layer 1"
     inkscape:groupmode="layer"
     id="layer1"
     transform="translate(-237.28962,-490.12625)">
    <flowRoot
       xml:space="preserve"
       id="flowRoot4256"
       style="font-style:normal;font-variant:normal;font-weight:normal;font-stretch:normal;font-size:40px;line-height:125%;font-family:Cantarell;-inkscape-font-specification:Cantarell;text-align:center;letter-spacing:0px;word-spacing:0px;text-anchor:middle;fill:#5fbf5e;fill-opacity:1;stroke:none;stroke-width:1px;stroke-linecap:butt;stroke-linejoin:miter;stroke-opacity:1"
       transform="matrix(1.0447221,0,0,0.98780086,-10.42248,310.89097)"><flowRegion
         id="flowRegion4258"><rect
           id="rect4260"
           width="976.45428"
           height="277.04953"
           x="102.68269"
           y="622.03772"
           style="font-size:40px;fill:#5fbf5e;fill-opacity:1" /></flowRegion><flowPara
         id="flowPara4262" /></flowRoot>    <path
       style="opacity:1;fill:#5fbf5e;fill-opacity:1;stroke:#000000;stroke-width:0.0190078;stroke-linecap:round;stroke-linejoin:round;stroke-miterlimit:4;stroke-dasharray:none;stroke-dashoffset:0;stroke-opacity:1"
       d="m 282.7798,508.48691 c -1.50534,6.33932 -7.72236,11.22598 -13.22254,10.16476 -5.50016,-1.06117 -8.20064,-7.66839 -6.69528,-14.00769 1.50534,-6.33931 2.87228,-15.48484 8.37243,-14.42361 2.37119,0.45751 6.70946,3.20161 8.95138,6.10716 2.95836,3.83406 3.4504,8.55304 2.59401,12.15938"
       id="path4311"
       inkscape:connector-curvature="0"
       sodipodi:nodetypes="cssssc" />
    <path
       style="opacity:1;fill:#5fbf5e;fill-opacity:1;stroke:#000000;stroke-width:0.01700075;stroke-linecap:round;stroke-linejoin:round;stroke-miterlimit:4;stroke-dasharray:none;stroke-dashoffset:0;stroke-opacity:1"
       d="m 251.67725,520.90116 c -1.14234,-1.52462 -1.6602,-5.92466 -1.755,-8.18172 -0.18091,-4.307 2.4675,-9.65927 5.59431,-10.70274 6.34097,0.88348 7.13887,9.91935 4.72124,15.1069 -1.46308,2.38854 -7.03215,5.63917 -8.56055,3.77756 z"
       id="path4311-6"
       inkscape:connector-curvature="0"
       sodipodi:nodetypes="csccc" />
    <path
       style="opacity:1;fill:#5fbf5e;fill-opacity:1;stroke:#000000;stroke-width:0.01358402;stroke-linecap:round;stroke-linejoin:round;stroke-miterlimit:4;stroke-dasharray:none;stroke-dashoffset:0;stroke-opacity:1"
       d="m 249.58613,520.64616 c 0.31562,0.95309 0.76012,2.02514 0.29828,2.90086 -0.60756,1.15204 -2.39905,2.34533 -3.57016,2.56804 -0.58344,0.11094 -1.22634,0.17045 -1.74425,0.0443 -2.06028,-0.64612 -1.94714,-2.78127 -2.40598,-4.20633 -0.73084,-2.20688 0.94011,-5.50688 3.00145,-5.89886 2.66206,0.18096 3.8346,2.92887 4.42066,4.59202 z"
       id="path4311-6-2"
       inkscape:connector-curvature="0"
       sodipodi:nodetypes="csscccc" />
    <path
       style="opacity:1;fill:#5fbf5e;fill-opacity:1;stroke:#000000;stroke-width:0.01500187;stroke-linecap:round;stroke-linejoin:round;stroke-miterlimit:4;stroke-dasharray:none;stroke-dashoffset:0;stroke-opacity:1"
       d="m 244.02576,529.85442 c -0.15601,0.82757 -1.56506,2.6661 -2.48538,2.86074 -0.69579,0.14714 -1.53593,-0.19412 -2.05457,-0.61618 -1.04357,-0.84923 -1.28449,-2.47922 -1.55714,-3.39169 -0.49677,-1.66261 0.33156,-3.22263 1.87373,-3.54876 1.54215,-0.32615 3.17147,0.64778 3.71516,2.3824 0.24721,0.74242 0.6136,1.7543 0.5082,2.31349 z"
       id="path4311-6-2-9"
       inkscape:connector-curvature="0"
       sodipodi:nodetypes="ssasscs" />
    <path
       style="opacity:1;fill:#5fbf5e;fill-opacity:1;stroke:#000000;stroke-width:0.01298033;stroke-linecap:round;stroke-linejoin:round;stroke-miterlimit:4;stroke-dasharray:none;stroke-dashoffset:0;stroke-opacity:1"
       d="m 240.17595,537.35469 c -0.39225,0.23739 -1.05245,0.29805 -1.43253,0.0579 -0.50094,-0.3165 -1.14389,-1.45143 -1.34315,-2.00738 -0.35049,-0.97776 0.21837,-2.26683 1.18759,-2.43322 0.96925,-0.16639 2.28234,1.31935 2.60037,2.30546 0.31981,0.9916 -0.30214,1.64749 -1.01228,2.07723 z"
       id="path4311-6-2-9-1"
       inkscape:connector-curvature="0"
       sodipodi:nodetypes="assssa" />
    <path
       style="fill:#5fbf5e;fill-opacity:1;fill-rule:evenodd;stroke:none;stroke-width:0.10502206;stroke-linecap:butt;stroke-linejoin:round;stroke-miterlimit:4;stroke-dasharray:none;stroke-opacity:1"
       d="m 270.42055,529.12191 c 6.19323,6.10359 -0.99297,20.67543 -5.70256,24.59504 -6.44951,2.08588 -11.27465,-2.22387 -15.25376,-6.46092 -9.87079,-12.24827 11.48364,-21.47862 20.95632,-18.13412 z"
       id="path4170-6"
       inkscape:connector-curvature="0"
       sodipodi:nodetypes="cccc" />
  </g>
</svg>
