<?xml version="1.0" encoding="UTF-8" standalone="no"?>
<!-- Created with Inkscape (http://www.inkscape.org/) -->

<svg
   xmlns:dc="http://purl.org/dc/elements/1.1/"
   xmlns:cc="http://creativecommons.org/ns#"
   xmlns:rdf="http://www.w3.org/1999/02/22-rdf-syntax-ns#"
   xmlns:svg="http://www.w3.org/2000/svg"
   xmlns="http://www.w3.org/2000/svg"
   xmlns:sodipodi="http://sodipodi.sourceforge.net/DTD/sodipodi-0.dtd"
   xmlns:inkscape="http://www.inkscape.org/namespaces/inkscape"
   width="12.272912mm"
   height="19.059072mm"
   viewBox="0 0 43.486692 67.53215"
   id="svg2"
   version="1.1"
   inkscape:version="0.91 r13725"
   sodipodi:docname="logo.svg"
   inkscape:export-filename="/var/www/kopalova/img/profile.png"
   inkscape:export-xdpi="103.9505"
   inkscape:export-ydpi="103.9505">
  <defs
     id="defs4" />
  <sodipodi:namedview
     id="base"
     pagecolor="#ffffff"
     bordercolor="#666666"
     borderopacity="1.0"
     inkscape:pageopacity="1"
     inkscape:pageshadow="2"
     inkscape:zoom="5.6568544"
     inkscape:cx="-9.9620267"
     inkscape:cy="6.7857464"
     inkscape:document-units="px"
     inkscape:current-layer="layer1"
     showgrid="false"
     inkscape:window-width="1535"
     inkscape:window-height="876"
     inkscape:window-x="65"
     inkscape:window-y="24"
     inkscape:window-maximized="1"
     fit-margin-top="0"
     fit-margin-left="0"
     fit-margin-right="0"
     fit-margin-bottom="0" />
  <metadata
     id="metadata7">
    <rdf:RDF>
      <cc:Work
         rdf:about="">
        <dc:format>image/svg+xml</dc:format>
        <dc:type
           rdf:resource="http://purl.org/dc/dcmitype/StillImage" />
        <dc:title></dc:title>
      </cc:Work>
    </rdf:RDF>
  </metadata>
  <g
     inkscape:label="Layer 1"
     inkscape:groupmode="layer"
     id="layer1"
     transform="translate(-233.04693,-489.53774)">
    <flowRoot
       xml:space="preserve"
       id="flowRoot4256"
       style="font-style:normal;font-variant:normal;font-weight:normal;font-stretch:normal;font-size:40px;line-height:125%;font-family:Cantarell;-inkscape-font-specification:Cantarell;text-align:center;letter-spacing:0px;word-spacing:0px;text-anchor:middle;fill:#5fbf5e;fill-opacity:1;stroke:none;stroke-width:1px;stroke-linecap:butt;stroke-linejoin:miter;stroke-opacity:1;"
       transform="translate(0,308.26772)"><flowRegion
         id="flowRegion4258"><rect
           id="rect4260"
           width="976.45428"
           height="277.04953"
           x="102.68269"
           y="622.03772"
           style="font-size:40px;fill:#5fbf5e;fill-opacity:1;" /></flowRegion><flowPara
         id="flowPara4262" /></flowRoot>    <path
       style="opacity:1;fill:#5fbf5e;fill-opacity:1;stroke:#000000;stroke-width:0.01353821;stroke-linecap:round;stroke-linejoin:round;stroke-miterlimit:4;stroke-dasharray:none;stroke-dashoffset:0;stroke-opacity:1"
       d="m 276.25321,502.39653 c -1.09041,4.43966 -5.59374,7.86198 -9.57781,7.11877 -3.98407,-0.74319 -5.94018,-5.37048 -4.84976,-9.81013 1.0904,-4.43966 2.08055,-10.84461 6.06461,-10.1014 1.71758,0.32041 4.86004,2.24221 6.48398,4.27707 2.1429,2.68515 2.49931,5.99003 1.87898,8.51569"
       id="path4311"
       inkscape:connector-curvature="0"
       sodipodi:nodetypes="cssssc" />
    <path
       style="opacity:1;fill:#5fbf5e;fill-opacity:1;stroke:#000000;stroke-width:0.01357507;stroke-linecap:round;stroke-linejoin:round;stroke-miterlimit:4;stroke-dasharray:none;stroke-dashoffset:0;stroke-opacity:1"
       d="m 251.64754,508.51948 c -1.04368,-1.06398 -1.51682,-4.13464 -1.60343,-5.70978 -0.16528,-3.00573 2.2544,-6.74092 5.11118,-7.46913 5.79333,0.61656 6.52232,6.92243 4.31348,10.54266 -1.33672,1.6669 -6.42483,3.93542 -7.82123,2.63625 z"
       id="path4311-6"
       inkscape:connector-curvature="0"
       sodipodi:nodetypes="csccc" />
    <path
       style="opacity:1;fill:#5fbf5e;fill-opacity:1;stroke:#000000;stroke-width:0.0133719;stroke-linecap:round;stroke-linejoin:round;stroke-miterlimit:4;stroke-dasharray:none;stroke-dashoffset:0;stroke-opacity:1"
       d="m 249.21667,507.01239 c 0.30211,0.96486 0.72759,2.05014 0.28552,2.93669 -0.58156,1.16626 -2.29636,2.37429 -3.41734,2.59975 -0.55846,0.11231 -1.17384,0.17255 -1.66958,0.0448 -1.97208,-0.6541 -1.86379,-2.81562 -2.30299,-4.25828 -0.69955,-2.23414 0.89987,-5.57489 2.87297,-5.97171 2.54811,0.18319 3.67045,2.96504 4.23142,4.64873 z"
       id="path4311-6-2"
       inkscape:connector-curvature="0"
       sodipodi:nodetypes="csscccc" />
    <path
       style="opacity:1;fill:#5fbf5e;fill-opacity:1;stroke:#000000;stroke-width:0.01476761;stroke-linecap:round;stroke-linejoin:round;stroke-miterlimit:4;stroke-dasharray:none;stroke-dashoffset:0;stroke-opacity:1"
       d="m 241.6946,515.43956 c -0.14933,0.83779 -1.49806,2.69903 -2.37898,2.89607 -0.666,0.14896 -1.47018,-0.19651 -1.96663,-0.62379 -0.99889,-0.85972 -1.2295,-2.50983 -1.49047,-3.43358 -0.47551,-1.68313 0.31736,-3.26242 1.79352,-3.59258 1.47613,-0.33018 3.0357,0.65578 3.55612,2.41182 0.23662,0.75159 0.58733,1.77597 0.48644,2.34206 z"
       id="path4311-6-2-9"
       inkscape:connector-curvature="0"
       sodipodi:nodetypes="ssasscs" />
    <path
       style="opacity:1;fill:#5fbf5e;fill-opacity:1;stroke:#000000;stroke-width:0.01277764;stroke-linecap:round;stroke-linejoin:round;stroke-miterlimit:4;stroke-dasharray:none;stroke-dashoffset:0;stroke-opacity:1"
       d="m 235.80988,522.85351 c -0.37545,0.24032 -1.0074,0.30173 -1.37121,0.0586 -0.47949,-0.3204 -1.09492,-1.46936 -1.28565,-2.03217 -0.33549,-0.98983 0.20902,-2.29483 1.13676,-2.46327 0.92775,-0.16844 2.18463,1.33565 2.48905,2.33393 0.30611,1.00385 -0.28921,1.66784 -0.96895,2.10289 z"
       id="path4311-6-2-9-1"
       inkscape:connector-curvature="0"
       sodipodi:nodetypes="assssa" />
    <path
       style="fill:#5fbf5e;fill-opacity:1;fill-rule:evenodd;stroke:none;stroke-width:0.10502206;stroke-linecap:butt;stroke-linejoin:round;stroke-miterlimit:4;stroke-dasharray:none;stroke-opacity:1"
       d="m 251.28888,512.43532 c 5.81569,-2.32136 12.4532,-2.5901 18.14702,0.60243 16.18748,11.72463 -5.81077,28.14663 -6.11322,38.0071 0.54241,5.20086 -4.12952,8.49755 -10.3148,3.68366 -1.2696,-0.78103 0.95452,-2.2501 1.91644,-1.58397 5.29186,4.08796 5.69849,-1.14359 5.11153,-3.01253 -1.08554,-8.84669 19.26762,-26.36716 -0.64346,-31.75816 -8.45268,-1.50982 -17.15886,2.97442 -17.07954,12.56668 3.56936,5.58344 -9.50975,9.09288 -5.74482,0.43142 -0.52357,-7.76604 6.22101,-15.54385 14.72085,-18.93663 z"
       id="path4170-6"
       inkscape:connector-curvature="0"
       sodipodi:nodetypes="sccccccccs" />
    <path
       style="opacity:1;fill:#5fbf5e;fill-opacity:1;stroke:#ffffff;stroke-width:0.11372938;stroke-linecap:butt;stroke-linejoin:round;stroke-miterlimit:4;stroke-dasharray:none;stroke-dashoffset:0;stroke-opacity:1"
       d="m 239.37287,536.68252 c 1.5104,-0.80363 3.70675,-0.63311 4.16834,0.16529 3.28576,5.15611 6.64003,10.17257 9.97087,14.9885 0.4755,0.687 -0.87088,1.43961 -1.76455,2.03729 -0.4362,0.15686 -0.6223,0.14808 -0.87598,7e-4 -5.10226,-4.60203 -9.55483,-9.61394 -12.58995,-15.24758 -0.333,-0.6181 0.11396,-1.48553 1.09127,-1.9442 z m 12.19286,15.09989 c -0.28902,0.12793 -0.70029,0.54135 -0.55605,0.76299 0.14425,0.22165 0.81006,0.49015 1.09908,0.36221 0.28901,-0.12796 0.23153,-0.60715 0.0873,-0.82881 -0.14423,-0.22164 -0.34131,-0.42435 -0.63032,-0.29639 z"
       id="rect5977"
       inkscape:connector-curvature="0"
       sodipodi:nodetypes="cccccsccsccc" />
  </g>
</svg>
