<svg xmlns="http://www.w3.org/2000/svg" width="46.386" height="72.034" viewBox="0 -5 53 81">
<g fill="#5fbf5e">
<path d="M43.206 12.859c-1.09 4.44-5.593 7.862-9.578 7.119-3.984-.744-5.94-5.37-4.85-9.81C29.87 5.727 30.86-.678 34.844.065c1.718.32 4.86 2.242 6.484 4.277 2.143 2.685 2.5 5.99 1.88 8.516M18.6 18.982c-1.043-1.064-1.516-4.135-1.603-5.71-.165-3.006 2.255-6.741 5.111-7.47 5.794.617 6.523 6.923 4.314 10.543-1.337 1.667-6.425 3.936-7.821 2.637z" stroke="#000" stroke-width=".014" stroke-linecap="round" stroke-linejoin="round"/>
<path d="M16.17 17.475c.302.965.727 2.05.285 2.936-.581 1.167-2.296 2.375-3.417 2.6-.559.112-1.174.173-1.67.045-1.972-.654-1.863-2.816-2.303-4.258-.7-2.235.9-5.575 2.873-5.972 2.548.183 3.67 2.965 4.232 4.649z" stroke="#000" stroke-width=".013" stroke-linecap="round" stroke-linejoin="round"/>
<path d="M8.648 25.902c-.15.838-1.498 2.699-2.38 2.896-.665.149-1.47-.197-1.966-.624-.999-.86-1.23-2.51-1.49-3.433-.476-1.684.317-3.263 1.793-3.593 1.476-.33 3.036.656 3.556 2.412.237.751.588 1.776.487 2.342z" stroke="#000" stroke-width=".015" stroke-linecap="round" stroke-linejoin="round"/>
<path d="M2.763 33.316c-.376.24-1.007.302-1.371.058-.48-.32-1.095-1.469-1.286-2.032-.335-.99.21-2.295 1.137-2.463.928-.169 2.184 1.336 2.489 2.334.306 1.004-.29 1.668-.97 2.103z" stroke="#000" stroke-width=".013" stroke-linecap="round" stroke-linejoin="round"/>
<path d="M18.242 22.898c5.816-2.322 12.453-2.59 18.147.602 16.187 11.725-5.81 28.147-6.113 38.007.542 5.201-4.13 8.498-10.315 3.684-1.27-.781.954-2.25 1.916-1.584 5.292 4.088 5.699-1.144 5.112-3.013-1.086-8.846 19.268-26.367-.644-31.758-8.452-1.51-17.158 2.975-17.08 12.567 3.57 5.583-9.509 9.093-5.744.431-.523-7.766 6.221-15.544 14.721-18.936z" fill-rule="evenodd"/>
<path d="M6.326 47.145c1.51-.804 3.707-.633 4.168.165A478.076 478.076 0 0 0 20.465 62.3c.476.687-.87 1.44-1.764 2.037-.437.157-.623.148-.876 0-5.103-4.601-9.555-9.613-12.59-15.247-.333-.618.114-1.486 1.09-1.944zm12.193 15.1c-.29.128-.7.541-.556.763.144.221.81.49 1.099.362.289-.128.231-.607.087-.829-.144-.222-.341-.424-.63-.296z" stroke="#fff" stroke-width=".114" stroke-linejoin="round"/>
</g>
</svg>
