<svg xmlns="http://www.w3.org/2000/svg" width="55.735" height="86.554" viewBox="0 0 52.251887 81.143972"><g fill="#5fbf5e"><path d="M51.915 15.45c-1.31 5.335-6.721 9.447-11.508 8.554-4.787-.893-7.138-6.453-5.828-11.787 1.31-5.335 2.5-13.03 7.287-12.138 2.064.385 5.84 2.694 7.791 5.14 2.575 3.226 3.003 7.197 2.258 10.232M22.35 22.808c-1.254-1.279-1.823-4.968-1.927-6.86-.198-3.613 2.709-8.1 6.142-8.976 6.96.741 7.836 8.318 5.182 12.668-1.606 2.003-7.72 4.729-9.397 3.168zM19.429 20.997c.363 1.16.874 2.463.343 3.528-.699 1.402-2.76 2.853-4.106 3.124-.671.135-1.41.208-2.006.054-2.37-.786-2.24-3.383-2.767-5.117-.841-2.684 1.08-6.698 3.452-7.175 3.061.22 4.41 3.563 5.084 5.586z" stroke="#000" stroke-width=".016" stroke-linecap="round" stroke-linejoin="round"/><path d="M10.39 31.123c-.179 1.006-1.8 3.243-2.858 3.48-.8.178-1.766-.237-2.363-.75-1.2-1.033-1.477-3.016-1.79-4.126-.572-2.022.38-3.92 2.154-4.316 1.774-.397 3.648.787 4.273 2.897.285.904.706 2.134.585 2.815z" stroke="#000" stroke-width=".018" stroke-linecap="round" stroke-linejoin="round"/><path d="M3.32 40.03c-.451.29-1.21.363-1.648.071-.576-.385-1.315-1.765-1.545-2.441-.403-1.19.252-2.758 1.366-2.96 1.115-.203 2.625 1.605 2.991 2.804.368 1.206-.347 2.004-1.164 2.527z" stroke="#000" stroke-width=".015" stroke-linecap="round" stroke-linejoin="round"/><path d="M21.919 27.513c6.988-2.79 14.963-3.112 21.805.724 19.45 14.088-6.982 33.82-7.346 45.668.652 6.249-4.962 10.21-12.394 4.426-1.525-.939 1.147-2.704 2.303-1.904 6.359 4.912 6.847-1.374 6.142-3.62-1.305-10.63 23.151-31.681-.773-38.159-10.157-1.814-20.618 3.574-20.522 15.1 4.288 6.709-11.427 10.926-6.903.518-.63-9.331 7.475-18.677 17.688-22.753z" fill-rule="evenodd"/><path d="M7.601 56.647c1.815-.965 4.454-.76 5.009.199a574.444 574.444 0 0 0 11.98 18.01c.571.825-1.046 1.73-2.12 2.447-.524.189-.748.178-1.053.001-6.13-5.53-11.48-11.551-15.127-18.32-.4-.743.137-1.786 1.311-2.337zm14.65 18.144c-.347.153-.841.65-.668.917.174.266.974.588 1.32.435.348-.154.28-.73.106-.996-.173-.266-.41-.51-.758-.356z" stroke="#fff" stroke-width=".137" stroke-linejoin="round"/></g></svg>