<?xml version="1.0" encoding="UTF-8" standalone="no"?>
<!-- Created with Inkscape (http://www.inkscape.org/) -->

<svg
   xmlns:dc="http://purl.org/dc/elements/1.1/"
   xmlns:cc="http://creativecommons.org/ns#"
   xmlns:rdf="http://www.w3.org/1999/02/22-rdf-syntax-ns#"
   xmlns:svg="http://www.w3.org/2000/svg"
   xmlns="http://www.w3.org/2000/svg"
   xmlns:sodipodi="http://sodipodi.sourceforge.net/DTD/sodipodi-0.dtd"
   xmlns:inkscape="http://www.inkscape.org/namespaces/inkscape"
   width="14.746645mm"
   height="22.900631mm"
   viewBox="0 0 52.251887 81.143972"
   id="svg2"
   version="1.1"
   inkscape:version="0.91 r13725"
   sodipodi:docname="logo.svg"
   inkscape:export-filename="/var/www/kopalova/img/profile.png"
   inkscape:export-xdpi="103.9505"
   inkscape:export-ydpi="103.9505">
  <defs
     id="defs4" />
  <sodipodi:namedview
     id="base"
     pagecolor="#ffffff"
     bordercolor="#666666"
     borderopacity="1.0"
     inkscape:pageopacity="1"
     inkscape:pageshadow="2"
     inkscape:zoom="5.6568544"
     inkscape:cx="9.3950256"
     inkscape:cy="27.998963"
     inkscape:document-units="px"
     inkscape:current-layer="layer1"
     showgrid="false"
     inkscape:window-width="1535"
     inkscape:window-height="876"
     inkscape:window-x="65"
     inkscape:window-y="24"
     inkscape:window-maximized="1"
     fit-margin-top="0"
     fit-margin-left="0"
     fit-margin-right="0"
     fit-margin-bottom="0" />
  <metadata
     id="metadata7">
    <rdf:RDF>
      <cc:Work
         rdf:about="">
        <dc:format>image/svg+xml</dc:format>
        <dc:type
           rdf:resource="http://purl.org/dc/dcmitype/StillImage" />
        <dc:title></dc:title>
      </cc:Work>
    </rdf:RDF>
  </metadata>
  <g
     inkscape:label="Layer 1"
     inkscape:groupmode="layer"
     id="layer1"
     transform="translate(-233.04693,-475.92593)">
    <flowRoot
       xml:space="preserve"
       id="flowRoot4256"
       style="font-style:normal;font-variant:normal;font-weight:normal;font-stretch:normal;font-size:40px;line-height:125%;font-family:Cantarell;-inkscape-font-specification:Cantarell;text-align:center;letter-spacing:0px;word-spacing:0px;text-anchor:middle;fill:#5fbf5e;fill-opacity:1;stroke:none;stroke-width:1px;stroke-linecap:butt;stroke-linejoin:miter;stroke-opacity:1"
       transform="translate(0,308.26772)"><flowRegion
         id="flowRegion4258"><rect
           id="rect4260"
           width="976.45428"
           height="277.04953"
           x="102.68269"
           y="622.03772"
           style="font-size:40px;fill:#5fbf5e;fill-opacity:1" /></flowRegion><flowPara
         id="flowPara4262" /></flowRoot>    <path
       style="opacity:1;fill:#5fbf5e;fill-opacity:1;stroke:#000000;stroke-width:0.01626698;stroke-linecap:round;stroke-linejoin:round;stroke-miterlimit:4;stroke-dasharray:none;stroke-dashoffset:0;stroke-opacity:1"
       d="m 284.96188,491.37655 c -1.31019,5.33452 -6.72121,9.44664 -11.50831,8.55363 -4.7871,-0.89299 -7.13749,-6.45296 -5.82728,-11.78746 1.31018,-5.33452 2.4999,-13.03046 7.28699,-12.13745 2.06378,0.385 5.83963,2.69415 7.7909,5.13916 2.57482,3.22637 3.00307,7.19738 2.2577,10.23212"
       id="path4311"
       inkscape:connector-curvature="0"
       sodipodi:nodetypes="cssssc" />
    <path
       style="opacity:1;fill:#5fbf5e;fill-opacity:1;stroke:#000000;stroke-width:0.01631127;stroke-linecap:round;stroke-linejoin:round;stroke-miterlimit:4;stroke-dasharray:none;stroke-dashoffset:0;stroke-opacity:1"
       d="m 255.39669,498.73364 c -1.25405,-1.27844 -1.82255,-4.96802 -1.92662,-6.86064 -0.19859,-3.61157 2.7088,-8.09963 6.14139,-8.97461 6.96104,0.74083 7.83696,8.31771 5.18291,12.66764 -1.60615,2.00288 -7.71982,4.72864 -9.39768,3.16761 z"
       id="path4311-6"
       inkscape:connector-curvature="0"
       sodipodi:nodetypes="csccc" />
    <path
       style="opacity:1;fill:#5fbf5e;fill-opacity:1;stroke:#000000;stroke-width:0.01606715;stroke-linecap:round;stroke-linejoin:round;stroke-miterlimit:4;stroke-dasharray:none;stroke-dashoffset:0;stroke-opacity:1"
       d="m 252.47585,496.92278 c 0.363,1.15934 0.87424,2.46337 0.34307,3.52861 -0.69878,1.40133 -2.75922,2.85285 -4.10614,3.12376 -0.67102,0.13495 -1.41044,0.20733 -2.0061,0.0538 -2.36957,-0.78594 -2.23946,-3.38314 -2.76718,-5.11658 -0.84055,-2.68446 1.08124,-6.69857 3.45204,-7.17537 3.06171,0.22011 4.41027,3.56267 5.08431,5.58573 z"
       id="path4311-6-2"
       inkscape:connector-curvature="0"
       sodipodi:nodetypes="csscccc" />
    <path
       style="opacity:1;fill:#5fbf5e;fill-opacity:1;stroke:#000000;stroke-width:0.01774417;stroke-linecap:round;stroke-linejoin:round;stroke-miterlimit:4;stroke-dasharray:none;stroke-dashoffset:0;stroke-opacity:1"
       d="m 243.43763,507.04853 c -0.17943,1.00666 -1.80001,3.24305 -2.85849,3.47981 -0.80024,0.17898 -1.76651,-0.23612 -2.36302,-0.74952 -1.20023,-1.03301 -1.47732,-3.01572 -1.79089,-4.12566 -0.57136,-2.02238 0.38132,-3.91999 2.15502,-4.3167 1.77366,-0.39673 3.64758,0.78796 4.27289,2.89795 0.28432,0.90308 0.70571,2.13393 0.58449,2.81412 z"
       id="path4311-6-2-9"
       inkscape:connector-curvature="0"
       sodipodi:nodetypes="ssasscs" />
    <path
       style="opacity:1;fill:#5fbf5e;fill-opacity:1;stroke:#000000;stroke-width:0.01535311;stroke-linecap:round;stroke-linejoin:round;stroke-miterlimit:4;stroke-dasharray:none;stroke-dashoffset:0;stroke-opacity:1"
       d="m 236.36678,515.95684 c -0.45112,0.28876 -1.21045,0.36255 -1.64759,0.0704 -0.57613,-0.38498 -1.31561,-1.76552 -1.54478,-2.44177 -0.40312,-1.18934 0.25115,-2.75738 1.36588,-2.95977 1.11475,-0.20239 2.62497,1.60487 2.99074,2.80436 0.36781,1.20619 -0.3475,2.00401 -1.16425,2.52675 z"
       id="path4311-6-2-9-1"
       inkscape:connector-curvature="0"
       sodipodi:nodetypes="assssa" />
    <path
       style="fill:#5fbf5e;fill-opacity:1;fill-rule:evenodd;stroke:none;stroke-width:0.10502206;stroke-linecap:butt;stroke-linejoin:round;stroke-miterlimit:4;stroke-dasharray:none;stroke-opacity:1"
       d="m 254.96574,503.43876 c 6.9879,-2.78926 14.96327,-3.11216 21.80474,0.72385 19.45023,14.08786 -6.982,33.81988 -7.34541,45.66783 0.65174,6.24915 -4.96187,10.21032 -12.39385,4.42614 -1.5255,-0.93846 1.14691,-2.70363 2.30272,-1.90324 6.35849,4.91193 6.84708,-1.37409 6.14181,-3.61973 -1.30434,-10.62984 23.15121,-31.68174 -0.77316,-38.15935 -10.1564,-1.81414 -20.6174,3.57395 -20.5221,15.09963 4.28881,6.70884 -11.42653,10.92564 -6.90274,0.51837 -0.62911,-9.33136 7.47491,-18.67687 17.68799,-22.7535 z"
       id="path4170-6"
       inkscape:connector-curvature="0"
       sodipodi:nodetypes="sccccccccs" />
    <path
       style="opacity:1;fill:#5fbf5e;fill-opacity:1;stroke:#ffffff;stroke-width:0.13665271;stroke-linecap:butt;stroke-linejoin:round;stroke-miterlimit:4;stroke-dasharray:none;stroke-dashoffset:0;stroke-opacity:1"
       d="m 240.64793,532.57323 c 1.81484,-0.96561 4.45388,-0.76072 5.00851,0.19861 3.94804,6.19538 7.9784,12.22296 11.9806,18.00959 0.57135,0.82547 -1.04641,1.72977 -2.12021,2.44792 -0.52412,0.18848 -0.74773,0.17793 -1.05254,8.4e-4 -6.13068,-5.52961 -11.48071,-11.55172 -15.12759,-18.32088 -0.40012,-0.74269 0.13693,-1.78496 1.31123,-2.33608 z m 14.65046,18.14343 c -0.34728,0.15372 -0.84144,0.65047 -0.66813,0.91678 0.17332,0.26633 0.97334,0.58895 1.32061,0.43522 0.34726,-0.15375 0.2782,-0.72953 0.1049,-0.99587 -0.1733,-0.26631 -0.41011,-0.50988 -0.75737,-0.35613 z"
       id="rect5977"
       inkscape:connector-curvature="0"
       sodipodi:nodetypes="cccccsccsccc" />
  </g>
</svg>
